<svg width="20" height="21" viewBox="0 0 20 21" fill="none" xmlns="http://www.w3.org/2000/svg">
<g clip-path="url(#clip0)">
<path d="M11.0105 13.7965C10.9381 13.7115 10.8466 13.648 10.7519 13.5951C10.5458 13.4799 10.3205 13.4101 10.0967 13.347V15.2049C10.4599 15.1609 10.8769 15.0197 11.0676 14.6564C11.1586 14.4829 11.1767 14.2696 11.1397 14.0764C11.1195 13.9718 11.078 13.8757 11.0105 13.7965Z" fill="#5E778A"/>
<path d="M11.0659 14.6603C11.0668 14.6589 11.0673 14.658 11.0683 14.6564C11.0675 14.6577 11.0667 14.659 11.0659 14.6603Z" fill="#5E778A"/>
<path d="M8.39301 10.8265C8.33057 10.9242 8.29138 11.0352 8.28057 11.1532C8.26976 11.2714 8.27583 11.4029 8.31775 11.5142C8.35766 11.6202 8.44127 11.6985 8.52757 11.7616C8.6244 11.8321 8.73091 11.8873 8.83938 11.934C8.93038 11.9732 9.03273 12.0108 9.14307 12.047V10.3658C8.86433 10.4296 8.55977 10.5656 8.39301 10.8265Z" fill="#5E778A"/>
<path d="M11.0767 14.6427C11.0739 14.6474 11.0708 14.6523 11.0679 14.6574C11.0714 14.6514 11.0741 14.647 11.0767 14.6427Z" fill="#5E778A"/>
<path d="M11.084 14.6265C11.0854 14.6238 11.0857 14.6236 11.084 14.6265V14.6265Z" fill="#5E778A"/>
<path d="M10.7077 4.51905C12.1823 3.19181 13.1676 0.201731 12.5613 0.0709519C11.7556 -0.102883 10.0059 0.65936 9.16027 0.793658C7.96083 0.948823 6.65447 -0.599902 5.9212 0.263357C5.32499 0.965244 6.34864 3.51778 7.95015 4.62979C3.1721 7.14587 -3.54377 19.7768 8.17243 20.6933C24.3838 21.9614 16.2662 6.97092 10.7077 4.51905ZM12.0999 14.4804C12.0501 14.9728 11.8065 15.4181 11.4424 15.7205C11.058 16.0397 10.5758 16.1882 10.0967 16.2297V16.7738C10.0967 16.9194 10.0374 17.0602 9.93569 17.1566C9.79589 17.2891 9.59044 17.3218 9.42076 17.238C9.25323 17.1555 9.14316 16.9714 9.14316 16.7738V16.1792C9.06101 16.1624 8.97946 16.1426 8.89886 16.1189C8.45112 15.987 8.03582 15.7301 7.73244 15.35C7.58133 15.1605 7.45813 14.9456 7.37292 14.7135C7.35066 14.6528 7.33082 14.591 7.31344 14.5286C7.29771 14.472 7.28147 14.4146 7.27586 14.3556C7.26642 14.2568 7.28471 14.1559 7.32772 14.0678C7.41612 13.8867 7.6024 13.7772 7.79261 13.7954C7.9798 13.8132 8.14387 13.9524 8.20281 14.1436C8.22096 14.2025 8.23327 14.2628 8.25366 14.3211C8.27387 14.3789 8.29827 14.4352 8.32696 14.4888C8.38362 14.5942 8.45459 14.6915 8.53633 14.7759C8.70482 14.9498 8.91943 15.0628 9.14316 15.1301V13.1087C8.70569 12.9873 8.25412 12.8306 7.89287 12.5297C7.7173 12.3833 7.56833 12.2015 7.47076 11.9864C7.36781 11.7593 7.32517 11.5063 7.32343 11.255C7.32165 10.9998 7.3669 10.7469 7.46625 10.5144C7.5593 10.2967 7.69326 10.1013 7.85751 9.9393C8.20873 9.59295 8.67526 9.39976 9.14321 9.3288V9.28433V8.764C9.14321 8.61846 9.20255 8.47761 9.30427 8.38124C9.44412 8.24875 9.64947 8.216 9.81919 8.29977C9.98668 8.38241 10.0968 8.56646 10.0968 8.764V9.28433V9.32572C10.1591 9.33413 10.2213 9.34419 10.2832 9.35622C10.7427 9.44531 11.1921 9.64861 11.5281 10.0036C11.6873 10.1717 11.8176 10.372 11.9093 10.5905C11.9349 10.6514 11.9573 10.7138 11.9766 10.7773C11.9947 10.8366 12.0129 10.8977 12.0215 10.9595C12.0353 11.0583 12.0212 11.1603 11.9818 11.2507C11.9009 11.4358 11.7197 11.5537 11.529 11.545C11.3416 11.5362 11.1718 11.4055 11.1047 11.2178C11.0847 11.162 11.0747 11.1029 11.0543 11.0473C11.0338 10.9909 11.0071 10.9371 10.9764 10.8864C10.9168 10.7877 10.8395 10.703 10.7512 10.6333C10.5601 10.4821 10.3283 10.4033 10.0967 10.3592V12.2937C10.3719 12.3643 10.6474 12.4413 10.9112 12.5527C11.3098 12.7211 11.6875 12.9794 11.9051 13.3866C11.8713 13.3231 11.8385 13.2613 11.9062 13.3887C11.9727 13.5138 11.941 13.4542 11.9076 13.3915C12.0807 13.7183 12.1376 14.1091 12.0999 14.4804Z" fill="#5E778A"/>
<path d="M11.0083 15.2307C11.0048 15.2365 11.0019 15.2415 10.9995 15.2453C11.0015 15.242 11.0046 15.237 11.0083 15.2307Z" fill="#5E778A"/>
</g>
<defs>
<clipPath id="clip0">
<rect width="19.3846" height="20.7692" fill="white"/>
</clipPath>
</defs>
</svg>
