<svg width="17" height="21" viewBox="0 0 17 21" fill="none" xmlns="http://www.w3.org/2000/svg">
<path d="M10.0105 13.7965C9.93815 13.7115 9.84656 13.648 9.75191 13.5951C9.54583 13.4799 9.32046 13.4101 9.09668 13.347V15.2049C9.4599 15.1609 9.87689 15.0197 10.0676 14.6564C10.1586 14.4829 10.1767 14.2696 10.1397 14.0764C10.1195 13.9718 10.078 13.8757 10.0105 13.7965Z" fill="white"/>
<path d="M10.0659 14.6603C10.0668 14.6589 10.0673 14.658 10.0683 14.6564C10.0675 14.6577 10.0667 14.659 10.0659 14.6603Z" fill="white"/>
<path d="M7.39301 10.8265C7.33057 10.9242 7.29138 11.0352 7.28057 11.1532C7.26976 11.2714 7.27583 11.4029 7.31775 11.5142C7.35766 11.6202 7.44127 11.6985 7.52757 11.7616C7.6244 11.8321 7.73091 11.8873 7.83938 11.934C7.93038 11.9732 8.03273 12.0108 8.14307 12.047V10.3658C7.86433 10.4296 7.55977 10.5656 7.39301 10.8265Z" fill="white"/>
<path d="M10.0767 14.6427C10.0739 14.6474 10.0708 14.6523 10.0679 14.6574C10.0714 14.6514 10.0741 14.647 10.0767 14.6427Z" fill="white"/>
<path d="M10.084 14.6265C10.0854 14.6238 10.0857 14.6236 10.084 14.6265V14.6265Z" fill="white"/>
<path d="M9.70769 4.51905C11.1823 3.19181 12.1676 0.201731 11.5613 0.0709519C10.7556 -0.102883 9.00593 0.65936 8.16027 0.793658C6.96083 0.948823 5.65447 -0.599902 4.9212 0.263357C4.32499 0.965244 5.34864 3.51778 6.95015 4.62979C2.1721 7.14587 -4.54377 19.7768 7.17243 20.6933C23.3838 21.9614 15.2662 6.97092 9.70769 4.51905ZM11.0999 14.4804C11.0501 14.9728 10.8065 15.4181 10.4424 15.7205C10.058 16.0397 9.57582 16.1882 9.09675 16.2297V16.7738C9.09675 16.9194 9.03741 17.0602 8.93569 17.1566C8.79589 17.2891 8.59044 17.3218 8.42076 17.238C8.25323 17.1555 8.14316 16.9714 8.14316 16.7738V16.1792C8.06101 16.1624 7.97946 16.1426 7.89886 16.1189C7.45112 15.987 7.03582 15.7301 6.73244 15.35C6.58133 15.1605 6.45813 14.9456 6.37292 14.7135C6.35066 14.6528 6.33082 14.591 6.31344 14.5286C6.29771 14.472 6.28147 14.4146 6.27586 14.3556C6.26642 14.2568 6.28471 14.1559 6.32772 14.0678C6.41612 13.8867 6.6024 13.7772 6.79261 13.7954C6.9798 13.8132 7.14387 13.9524 7.20281 14.1436C7.22096 14.2025 7.23327 14.2628 7.25366 14.3211C7.27387 14.3789 7.29827 14.4352 7.32696 14.4888C7.38362 14.5942 7.45459 14.6915 7.53633 14.7759C7.70482 14.9498 7.91943 15.0628 8.14316 15.1301V13.1087C7.70569 12.9873 7.25412 12.8306 6.89287 12.5297C6.7173 12.3833 6.56833 12.2015 6.47076 11.9864C6.36781 11.7593 6.32517 11.5063 6.32343 11.255C6.32165 10.9998 6.3669 10.7469 6.46625 10.5144C6.5593 10.2967 6.69326 10.1013 6.85751 9.9393C7.20873 9.59295 7.67526 9.39976 8.14321 9.3288V9.28433V8.764C8.14321 8.61846 8.20255 8.47761 8.30427 8.38124C8.44412 8.24875 8.64947 8.216 8.81919 8.29977C8.98668 8.38241 9.09679 8.56646 9.09679 8.764V9.28433V9.32572C9.15915 9.33413 9.22132 9.34419 9.28317 9.35622C9.74267 9.44531 10.1921 9.64861 10.5281 10.0036C10.6873 10.1717 10.8176 10.372 10.9093 10.5905C10.9349 10.6514 10.9573 10.7138 10.9766 10.7773C10.9947 10.8366 11.0129 10.8977 11.0215 10.9595C11.0353 11.0583 11.0212 11.1603 10.9818 11.2507C10.9009 11.4358 10.7197 11.5537 10.529 11.545C10.3416 11.5362 10.1718 11.4055 10.1047 11.2178C10.0847 11.162 10.0747 11.1029 10.0543 11.0473C10.0338 10.9909 10.0071 10.9371 9.97644 10.8864C9.91678 10.7877 9.83946 10.703 9.7512 10.6333C9.56008 10.4821 9.32828 10.4033 9.09666 10.3592V12.2937C9.37193 12.3643 9.64743 12.4413 9.91117 12.5527C10.3098 12.7211 10.6875 12.9794 10.9051 13.3866C10.8713 13.3231 10.8385 13.2613 10.9062 13.3887C10.9727 13.5138 10.941 13.4542 10.9076 13.3915C11.0807 13.7183 11.1376 14.1091 11.0999 14.4804Z" fill="white"/>
<path d="M10.0083 15.2307C10.0048 15.2365 10.0019 15.2415 9.99951 15.2453C10.0015 15.242 10.0046 15.237 10.0083 15.2307Z" fill="white"/>
</svg>
