<svg width="20" height="21" viewBox="0 0 20 21" fill="none" xmlns="http://www.w3.org/2000/svg">
<g clip-path="url(#clip0)">
<path d="M19.3846 4.50561C19.3846 3.93613 18.9469 3.5174 18.4154 3.5174H0.969231C0.437717 3.5174 0 3.91938 0 4.50561V6.36479H19.3846V4.50561Z" fill="white"/>
<path d="M0.969231 17.5031H18.4154C18.9469 17.5031 19.3846 17.1011 19.3846 16.5149V8.96094H0V16.5149C0 17.1011 0.437717 17.5031 0.969231 17.5031ZM16.727 13.433C17.3367 13.433 17.8213 13.9523 17.8213 14.6055C17.8213 15.2585 17.3367 15.7779 16.727 15.7779C16.1174 15.7779 15.6328 15.2585 15.6328 14.6055C15.6328 13.9523 16.1174 13.433 16.727 13.433ZM1.56328 14.438C1.56328 13.8853 1.96973 13.4833 2.46998 13.4833H6.90968C7.40993 13.4833 7.81638 13.8853 7.81638 14.438V14.773C7.81638 15.3257 7.39429 15.8282 6.90968 15.8282H2.46998C1.96973 15.8282 1.56328 15.3257 1.56328 14.773V14.438Z" fill="white"/>
</g>
<defs>
<clipPath id="clip0">
<rect width="19.3846" height="20.7692" fill="white"/>
</clipPath>
</defs>
</svg>
