<svg width="22" height="20" viewBox="0 0 22 20" fill="none" xmlns="http://www.w3.org/2000/svg">
<g clip-path="url(#clip0)">
<path d="M15.8712 10C15.8712 11.375 17.0388 12.5 18.4658 12.5C19.8929 12.5 21.0605 11.375 21.0605 10C21.0605 8.625 19.8929 7.5 18.4658 7.5C17.0388 7.5 15.8712 8.625 15.8712 10ZM13.2765 10C13.2765 8.625 12.1088 7.5 10.6818 7.5C9.25467 7.5 8.08706 8.625 8.08706 10C8.08706 11.375 9.25467 12.5 10.6818 12.5C12.1088 12.5 13.2765 11.375 13.2765 10ZM5.49236 10C5.49236 8.625 4.32475 7.5 2.89767 7.5C1.47058 7.5 0.302971 8.625 0.302971 10C0.302971 11.375 1.47058 12.5 2.89767 12.5C4.32475 12.5 5.49236 11.375 5.49236 10Z" fill="#5E778A"/>
</g>
<defs>
<clipPath id="clip0">
<rect width="20" height="20.7576" fill="white" transform="translate(21.0605) rotate(90)"/>
</clipPath>
</defs>
</svg>
