<svg width="20" height="20" viewBox="0 0 20 20" fill="none" xmlns="http://www.w3.org/2000/svg">
<g clip-path="url(#clip0)">
<path d="M15 10C15 11.375 16.125 12.5 17.5 12.5C18.875 12.5 20 11.375 20 10C20 8.625 18.875 7.5 17.5 7.5C16.125 7.5 15 8.625 15 10ZM12.5 10C12.5 8.625 11.375 7.5 10 7.5C8.625 7.5 7.5 8.625 7.5 10C7.5 11.375 8.625 12.5 10 12.5C11.375 12.5 12.5 11.375 12.5 10ZM5 10C5 8.625 3.875 7.5 2.5 7.5C1.125 7.5 -4.91753e-08 8.625 -1.09278e-07 10C-1.69382e-07 11.375 1.125 12.5 2.5 12.5C3.875 12.5 5 11.375 5 10Z" fill="white"/>
</g>
<defs>
<clipPath id="clip0">
<rect width="20" height="20" fill="white" transform="translate(20) rotate(90)"/>
</clipPath>
</defs>
</svg>
