<svg width="17" height="21" viewBox="0 0 17 21" fill="none" xmlns="http://www.w3.org/2000/svg">
<path d="M15.4201 2.2865H14.8295V16.7967C14.8295 17.7607 14.0448 18.5453 13.0808 18.5453H7.09658H2.33789V19.0832C2.33789 19.6992 2.83781 20.199 3.45374 20.199H9.43585H15.418C16.0339 20.199 16.5338 19.6992 16.5338 19.0832V3.40234C16.5338 2.78641 16.036 2.2865 15.4201 2.2865Z" fill="white"/>
<path d="M7.09585 17.9125H13.078C13.6939 17.9125 14.1938 17.4126 14.1938 16.7967V2.28653V1.11584C14.1938 0.499915 13.6939 0 13.078 0H7.09585H5.10673V0.369135C5.11093 0.407104 5.11306 0.447181 5.11306 0.487259V2.91933V3.5437C5.11306 4.41064 4.40854 5.11516 3.54159 5.11516H2.91723H0.48515C0.45351 5.11516 0.41976 5.11305 0.38812 5.11094H0V16.7967C0 17.4126 0.499915 17.9125 1.11584 17.9125H2.33927H7.09585ZM7.32155 14.12H3.42136C3.13027 14.12 2.89403 13.8837 2.89403 13.5926C2.89403 13.3015 3.13027 13.0653 3.42136 13.0653H7.32366C7.61475 13.0653 7.85099 13.3015 7.85099 13.5926C7.85099 13.8837 7.61264 14.12 7.32155 14.12ZM11.2238 11.4285H3.42136C3.13027 11.4285 2.89403 11.1922 2.89403 10.9011C2.89403 10.61 3.13027 10.3738 3.42136 10.3738H11.2238C11.5149 10.3738 11.7512 10.61 11.7512 10.9011C11.7512 11.1922 11.5149 11.4285 11.2238 11.4285ZM3.42136 7.5156H11.2238C11.5149 7.5156 11.7512 7.75185 11.7512 8.04294C11.7512 8.33403 11.5149 8.57027 11.2238 8.57027H3.42136C3.13027 8.57027 2.89403 8.33403 2.89403 8.04294C2.89403 7.75185 3.13027 7.5156 3.42136 7.5156Z" fill="white"/>
<path d="M0.486172 4.48288H3.54262C3.54473 4.48288 3.54894 4.48288 3.55105 4.48288C4.06152 4.47866 4.47495 4.06523 4.47917 3.55477C4.47917 3.55266 4.47917 3.54844 4.47917 3.54633V0.487779C4.47917 0.205127 4.24714 0.017395 4.00669 0.017395C3.89068 0.017395 3.77467 0.0595819 3.67764 0.156612L0.152895 3.68133C-0.142413 3.97664 0.0664123 4.48288 0.486172 4.48288Z" fill="white"/>
</svg>
