<svg width="20" height="20" viewBox="0 0 20 20" fill="none" xmlns="http://www.w3.org/2000/svg">
<g clip-path="url(#clip0)">
<path d="M14.4485 4.09113C15.1913 4.09113 15.7931 3.49337 15.7931 2.74917V1.34463C15.7931 0.599757 15.192 0 14.4485 0C13.7049 0 13.1045 0.599092 13.1045 1.34463V2.74983C13.1052 3.49337 13.7056 4.09113 14.4485 4.09113Z" fill="white"/>
<path d="M19.2257 2.32582H16.5192V3.00945C16.5192 4.13774 15.6026 5.05701 14.4723 5.05701C13.3407 5.05701 12.426 4.13774 12.426 3.00945V2.32582H6.96432V3.00945C6.96432 4.13774 6.04638 5.05701 4.91676 5.05701C3.78714 5.05701 2.86986 4.1384 2.86986 3.00945V2.32582L0.138672 2.29187V19.3846H1.5046H17.8824L19.2464 19.3806L19.2257 2.32582ZM17.8811 18.0234H1.5046V7.10391H17.8824V18.0234H17.8811Z" fill="white"/>
<path d="M4.89506 4.09113C5.63793 4.09113 6.24035 3.49337 6.24035 2.74917V1.34463C6.24035 0.599092 5.63793 0 4.89506 0C4.15218 0 3.55176 0.599092 3.55176 1.34463V2.74983C3.55176 3.49337 4.15152 4.09113 4.89506 4.09113Z" fill="white"/>
<path d="M9.11949 8.56903H6.96875V10.4675H9.11949V8.56903Z" fill="white"/>
<path d="M12.598 8.56903H10.4453V10.4675H12.598V8.56903Z" fill="white"/>
<path d="M15.8216 8.56903H13.6709V10.4675H15.8216V8.56903Z" fill="white"/>
<path d="M9.11949 11.7216H6.96875V13.6187H9.11949V11.7216Z" fill="white"/>
<path d="M12.598 11.7216H10.4453V13.6187H12.598V11.7216Z" fill="white"/>
<path d="M15.8216 11.7216H13.6709V13.6187H15.8216V11.7216Z" fill="white"/>
<path d="M9.11949 14.9367H6.96875V16.8338H9.11949V14.9367Z" fill="white"/>
<path d="M5.70117 11.7216H3.55176V13.6187H5.70117V11.7216Z" fill="white"/>
<path d="M5.70117 14.9367H3.55176V16.8338H5.70117V14.9367Z" fill="white"/>
<path d="M12.598 14.9367H10.4453V16.8338H12.598V14.9367Z" fill="white"/>
<path d="M15.8216 14.9367H13.6709V16.8338H15.8216V14.9367Z" fill="white"/>
</g>
<defs>
<clipPath id="clip0">
<rect width="19.3846" height="19.3846" fill="white"/>
</clipPath>
</defs>
</svg>
