<svg width="20" height="20" viewBox="0 0 20 20" fill="none" xmlns="http://www.w3.org/2000/svg">
<g clip-path="url(#clip0)">
<path d="M14.4489 4.09113C15.1918 4.09113 15.7936 3.49337 15.7936 2.74917V1.34463C15.7936 0.599757 15.1925 0 14.4489 0C13.7054 0 13.105 0.599092 13.105 1.34463V2.74983C13.1056 3.49337 13.7061 4.09113 14.4489 4.09113Z" fill="#5E778A"/>
<path d="M19.2257 2.32582H16.5192V3.00945C16.5192 4.13774 15.6026 5.05701 14.4723 5.05701C13.3407 5.05701 12.426 4.13774 12.426 3.00945V2.32582H6.96432V3.00945C6.96432 4.13774 6.04638 5.05701 4.91676 5.05701C3.78714 5.05701 2.86986 4.1384 2.86986 3.00945V2.32582L0.138672 2.29187V19.3846H1.5046H17.8824L19.2464 19.3806L19.2257 2.32582ZM17.8811 18.0234H1.5046V7.10391H17.8824V18.0234H17.8811Z" fill="#5E778A"/>
<path d="M4.89554 4.09113C5.63842 4.09113 6.24084 3.49337 6.24084 2.74917V1.34463C6.24084 0.599092 5.63842 0 4.89554 0C4.15267 0 3.55225 0.599092 3.55225 1.34463V2.74983C3.55225 3.49337 4.152 4.09113 4.89554 4.09113Z" fill="#5E778A"/>
<path d="M9.119 8.56903H6.96826V10.4675H9.119V8.56903Z" fill="#5E778A"/>
<path d="M12.5985 8.56903H10.4458V10.4675H12.5985V8.56903Z" fill="#5E778A"/>
<path d="M15.8216 8.56903H13.6709V10.4675H15.8216V8.56903Z" fill="#5E778A"/>
<path d="M9.119 11.7216H6.96826V13.6187H9.119V11.7216Z" fill="#5E778A"/>
<path d="M12.5985 11.7216H10.4458V13.6187H12.5985V11.7216Z" fill="#5E778A"/>
<path d="M15.8216 11.7216H13.6709V13.6187H15.8216V11.7216Z" fill="#5E778A"/>
<path d="M9.119 14.9367H6.96826V16.8338H9.119V14.9367Z" fill="#5E778A"/>
<path d="M5.70165 11.7216H3.55225V13.6187H5.70165V11.7216Z" fill="#5E778A"/>
<path d="M5.70165 14.9367H3.55225V16.8338H5.70165V14.9367Z" fill="#5E778A"/>
<path d="M12.5985 14.9367H10.4458V16.8338H12.5985V14.9367Z" fill="#5E778A"/>
<path d="M15.8216 14.9367H13.6709V16.8338H15.8216V14.9367Z" fill="#5E778A"/>
</g>
<defs>
<clipPath id="clip0">
<rect width="19.3846" height="19.3846" fill="white"/>
</clipPath>
</defs>
</svg>
