<svg width="20" height="21" viewBox="0 0 20 21" fill="none" xmlns="http://www.w3.org/2000/svg">
<path d="M12.0899 14.2738C11.6116 14.1924 11.6007 12.7845 11.6007 12.7845C11.6007 12.7845 13.0063 11.2951 13.3126 9.29226C14.1367 9.29226 14.6457 7.16301 13.8214 6.41386C13.856 5.62525 14.8807 0.223267 9.69231 0.223267C4.50385 0.223267 5.52872 5.62525 5.56304 6.41386C4.73889 7.16301 5.24782 9.29226 6.07193 9.29226C6.37823 11.2951 7.78383 12.7845 7.78383 12.7845C7.78383 12.7845 7.77293 14.1924 7.29459 14.2738C5.75377 14.5363 0 17.2528 0 20.2315H9.69231H19.3846C19.3846 17.2528 13.6308 14.5363 12.0899 14.2738Z" fill="white"/>
</svg>
