<svg width="20" height="21" viewBox="0 0 20 21" fill="none" xmlns="http://www.w3.org/2000/svg">
<g clip-path="url(#clip0)">
<path d="M12.0899 14.435C11.6116 14.3534 11.6007 12.9442 11.6007 12.9442C11.6007 12.9442 13.0063 11.4533 13.3126 9.44858C14.1367 9.44858 14.6457 7.31728 13.8214 6.56741C13.856 5.77804 14.8807 0.37085 9.69231 0.37085C4.50385 0.37085 5.52873 5.77804 5.56304 6.56741C4.73889 7.31728 5.24782 9.44858 6.07193 9.44858C6.37823 11.4533 7.78383 12.9442 7.78383 12.9442C7.78383 12.9442 7.77293 14.3534 7.29459 14.435C5.75377 14.6976 0 17.4167 0 20.3983H9.69231H19.3846C19.3846 17.4167 13.6308 14.6976 12.0899 14.435Z" fill="#5E778A"/>
</g>
<defs>
<clipPath id="clip0">
<rect width="19.3846" height="20.7692" fill="white"/>
</clipPath>
</defs>
</svg>
